<svg version="1.1" viewBox="0.0 0.0 576.0 576.0" fill="none" stroke="none" stroke-linecap="square" stroke-miterlimit="10" xmlns:xlink="http://www.w3.org/1999/xlink" xmlns="http://www.w3.org/2000/svg"><clipPath id="p.0"><path d="m0 0l576.0 0l0 576.0l-576.0 0l0 -576.0z" clip-rule="nonzero"/></clipPath><g clip-path="url(#p.0)"><path fill="#000000" fill-opacity="0.0" d="m0 0l576.0 0l0 576.0l-576.0 0z" fill-rule="evenodd"/><path fill="#064f0c" d="m44.75591 70.97865l0 0c0 -28.5983 23.183506 -51.781803 51.781803 -51.781803l382.9246 0c13.733368 0 26.904266 5.4555683 36.615265 15.166538c9.7109375 9.710972 15.166504 22.881878 15.166504 36.615265l0 434.04266c0 28.598297 -23.183472 51.78183 -51.78177 51.78183l-382.9246 0c-28.598297 0 -51.781803 -23.183533 -51.781803 -51.78183z" fill-rule="evenodd"/><path fill="#ffffff" d="m116.51964 124.80503l0 0c0 -13.7740555 11.166077 -24.940132 24.940125 -24.940132l99.75754 0l0 0c6.6145325 0 12.958145 2.627617 17.63533 7.3047943c4.677185 4.677185 7.3048096 11.020805 7.3048096 17.635338l0 326.3717c0 13.774048 -11.166092 24.940155 -24.94014 24.940155l-99.75754 0c-13.774048 0 -24.940125 -11.166107 -24.940125 -24.940155z" fill-rule="evenodd"/><path fill="#ffffff" d="m309.8423 124.812904l0 0c0 -13.7740555 11.166077 -24.940132 24.940125 -24.940132l99.75754 0l0 0c6.6145325 0 12.95816 2.627617 17.635345 7.3047943c4.677185 4.677185 7.304779 11.020805 7.304779 17.635338l0 119.69454c0 13.774048 -11.166077 24.940125 -24.940125 24.940125l-99.75754 0c-13.774048 0 -24.940125 -11.166077 -24.940125 -24.940125z" fill-rule="evenodd"/><path fill="#ffffff" d="m309.8423 331.48224l0 0c0 -13.774048 11.166077 -24.940125 24.940125 -24.940125l99.75754 0l0 0c6.6145325 0 12.95816 2.6276245 17.635345 7.3048096c4.677185 4.6771545 7.304779 11.020782 7.304779 17.635315l0 119.69455c0 13.774048 -11.166077 24.940125 -24.940125 24.940125l-99.75754 0c-13.774048 0 -24.940125 -11.166077 -24.940125 -24.940125z" fill-rule="evenodd"/></g></svg>